<svg width="46" height="47" viewBox="0 0 46 47" fill="none" xmlns="http://www.w3.org/2000/svg">
<path d="M12.8676 31.6547C12.2818 32.2405 12.2818 33.1902 12.8676 33.776C13.4533 34.3618 14.4031 34.3618 14.9889 33.776L12.8676 31.6547ZM33.4282 14.7153C33.4282 13.8869 32.7566 13.2153 31.9282 13.2153L18.4282 13.2153C17.5998 13.2153 16.9282 13.8869 16.9282 14.7153C16.9282 15.5438 17.5998 16.2153 18.4282 16.2153L30.4282 16.2153L30.4282 28.2153C30.4282 29.0438 31.0998 29.7153 31.9282 29.7153C32.7567 29.7153 33.4282 29.0438 33.4282 28.2153L33.4282 14.7153ZM14.9889 33.776L32.9889 15.776L30.8676 13.6547L12.8676 31.6547L14.9889 33.776Z" fill="#393939"/>
</svg>
