<svg fill="none" xmlns="http://www.w3.org/2000/svg">
<path fill-rule="evenodd" clip-rule="evenodd" d="M8.31579 2H15.6842C19.1723 2 22 4.82768 22 8.31579V15.6842C22 19.1723 19.1723 22 15.6842 22H8.31579C4.82768 22 2 19.1723 2 15.6842V8.31579C2 4.82768 4.82768 2 8.31579 2ZM9.10944 10.4202C9.8853 11.1645 10.9251 11.5699 12 11.5474C14.2402 11.5944 16.0956 9.81903 16.1474 7.57895C16.1474 7.14293 15.7939 6.78947 15.3579 6.78947C14.9219 6.78947 14.5684 7.14293 14.5684 7.57895C14.5114 8.94453 13.3661 10.01 12 9.96842C10.6357 10.0099 9.49353 8.94289 9.44211 7.57895C9.44211 7.14293 9.08865 6.78947 8.65263 6.78947C8.21662 6.78947 7.86316 7.14293 7.86316 7.57895C7.88526 8.65385 8.33358 9.67591 9.10944 10.4202Z" fill="white"/>
</svg>
