<svg width="20" height="20" viewBox="0 0 20 20" fill="none" xmlns="http://www.w3.org/2000/svg">
<path fill-rule="evenodd" clip-rule="evenodd" d="M6.31579 0H13.6842C17.1723 0 20 2.82768 20 6.31579V13.6842C20 17.1723 17.1723 20 13.6842 20H6.31579C2.82768 20 0 17.1723 0 13.6842V6.31579C0 2.82768 2.82768 0 6.31579 0ZM7.10944 8.42019C7.8853 9.16446 8.92511 9.56994 10 9.54737C12.2402 9.59441 14.0956 7.81903 14.1474 5.57895C14.1474 5.14293 13.7939 4.78947 13.3579 4.78947C12.9219 4.78947 12.5684 5.14293 12.5684 5.57895C12.5114 6.94453 11.3661 8.00998 10 7.96842C8.63572 8.00987 7.49353 6.94289 7.44211 5.57895C7.44211 5.14293 7.08865 4.78947 6.65263 4.78947C6.21662 4.78947 5.86316 5.14293 5.86316 5.57895C5.88526 6.65385 6.33358 7.67591 7.10944 8.42019Z" fill="white"/>
</svg>
