<svg width="24" height="24" viewBox="0 0 24 24" fill="none" xmlns="http://www.w3.org/2000/svg">
<path d="M20.2999 3.70004L21.9999 8.30004C22.3277 9.20107 22.2051 10.2045 21.6699 11C21.0628 11.8851 20.0725 12.4303 18.9999 12.47C17.3261 12.5979 15.8148 11.4708 15.4599 9.83004C15.4599 9.83004 15.3999 9.83004 15.3899 9.83004C15.0585 11.4212 13.6238 12.5385 11.9999 12.47C10.3835 12.5285 8.96019 11.4135 8.62994 9.83004C8.62994 9.83004 8.56994 9.83004 8.55994 9.83004C8.36634 10.71 7.83041 11.4767 7.07051 11.9608C6.31061 12.4448 5.38926 12.6065 4.50994 12.41C3.72835 12.2816 3.01874 11.8771 2.50994 11.27C1.85022 10.4344 1.68277 9.31179 2.06994 8.32004L3.72994 3.70004C4.11994 2.71676 5.08252 2.0817 6.13994 2.11004H17.8899C18.9474 2.0817 19.9099 2.71676 20.2999 3.70004Z" fill="white"/>
<path d="M19.0999 14V19.1C19.0843 19.6597 18.8468 20.1902 18.4398 20.5747C18.0328 20.9592 17.4896 21.1662 16.9299 21.15H14.0999V18C14.0461 16.9486 13.1515 16.1391 12.0999 16.19C11.5802 16.1843 11.0772 16.3734 10.6899 16.72C10.3173 17.0412 10.1021 17.5081 10.0999 18V21.15H7.26994C6.70347 21.1662 6.15431 20.9538 5.74614 20.5606C5.33796 20.1675 5.10509 19.6267 5.09994 19.06V14H5.17994C6.43329 14.0024 7.64362 13.5432 8.57994 12.71C10.5424 14.422 13.4675 14.422 15.4299 12.71C16.3699 13.5503 17.5892 14.0102 18.8499 14H19.0999Z" fill="white"/>
</svg>
