<svg width="24" height="24" viewBox="0 0 24 24" fill="none" xmlns="http://www.w3.org/2000/svg">
<path fill-rule="evenodd" clip-rule="evenodd" d="M20.28 3.81992L21.94 8.42992C22.3012 9.32256 22.2119 10.3343 21.7 11.1499C21.2644 11.768 20.6342 12.2223 19.91 12.4399V19.2399C19.8943 20.0038 19.5756 20.7301 19.0242 21.259C18.4728 21.7879 17.7339 22.076 16.97 22.0599H7.31C6.53665 22.0896 5.78371 21.8078 5.21981 21.2778C4.65591 20.7477 4.32818 20.0136 4.31 19.2399V12.5399C3.60595 12.3787 2.97181 11.9968 2.5 11.4499C1.82159 10.6031 1.65334 9.4559 2.06 8.44992L3.71 3.82992C4.09914 2.84463 5.06092 2.2061 6.12 2.22992H17.87C18.9274 2.20157 19.89 2.83663 20.28 3.81992ZM13.3515 20.4299H13.36V20.4599C13.357 20.45 13.3541 20.44 13.3515 20.4299ZM13.3515 20.4299H10.81C10.8195 20.3535 10.8195 20.2763 10.81 20.1999V18.0899C10.8274 17.7726 10.9742 17.4764 11.2162 17.2703C11.4581 17.0643 11.774 16.9666 12.09 16.9999C12.7184 16.9538 13.2669 17.422 13.32 18.0499V20.1899C13.32 20.271 13.3306 20.3517 13.3515 20.4299ZM16.92 20.4299H14.81C14.8195 20.3535 14.8195 20.2763 14.81 20.1999V18.0899C14.7557 16.6174 13.5228 15.4649 12.05 15.5099C10.5733 15.4593 9.33426 16.6134 9.28 18.0899V20.2299C9.27048 20.3063 9.27048 20.3835 9.28 20.4599H7.26C6.52339 20.4939 5.89774 19.9263 5.86 19.1899V12.5199C7.19237 12.3188 8.26244 11.3163 8.55 9.99992C8.90221 11.597 10.3681 12.6975 12 12.5899C13.6025 12.6571 15.0225 11.5657 15.37 9.99992C15.6514 11.3992 16.8103 12.4528 18.23 12.5999V19.2399C18.1688 19.9214 17.6041 20.4473 16.92 20.4599V20.4299ZM18.92 10.8399C19.4501 10.826 19.9413 10.5581 20.24 10.1199V10.1499C20.4475 9.80032 20.4736 9.37209 20.31 8.99992L18.66 4.44992C18.5136 4.15234 18.2006 3.97405 17.87 3.99992H6.12C5.8019 3.97083 5.49641 4.13141 5.34 4.40992L3.69 8.99992C3.47556 9.42433 3.51407 9.93265 3.79 10.3199C4.03924 10.6262 4.39788 10.8234 4.79 10.8699C4.91624 10.8846 5.04376 10.8846 5.17 10.8699C5.93946 10.9119 6.6344 10.4126 6.84 9.66992C6.99257 8.82461 7.72116 8.20489 8.58 8.18992C9.44809 8.1895 10.1868 8.8221 10.32 9.67991C10.5236 10.4272 11.2275 10.9258 12 10.8699C12.7788 10.9218 13.4827 10.4076 13.67 9.64992C13.8146 8.79855 14.5465 8.17184 15.41 8.15991C16.2749 8.15873 17.0124 8.78608 17.15 9.63991C17.3537 10.3927 18.0621 10.8957 18.84 10.8399H18.92Z" fill="white"/>
</svg>
