<svg viewBox="0 0 16 16" fill="none" xmlns="http://www.w3.org/2000/svg">
<path d="M6.36426 2.53533C7.33785 1.82156 8.66215 1.82156 9.63574 2.53533L12.9707 4.9992C13.6132 5.46433 13.9956 6.20796 14 7.00115V11.4601C13.9585 12.8898 12.7708 14.0183 11.3408 13.9865H4.66504C3.23277 14.0218 2.04145 12.8922 2 11.4601V7.00115C2.00439 6.20796 2.3868 5.46433 3.0293 4.9992L6.36426 2.53533ZM5.1582 10.3674C4.89659 10.3674 4.68457 10.5794 4.68457 10.841C4.68462 11.1026 4.89662 11.3146 5.1582 11.3146H10.8418C11.1034 11.3146 11.3154 11.1026 11.3154 10.841C11.3154 10.5794 11.1034 10.3674 10.8418 10.3674H5.1582Z" fill="white"/>
</svg>
